<?xml version="1.0" encoding="UTF-8"?>
<svg id="Layer_1" xmlns="http://www.w3.org/2000/svg" version="1.1" viewBox="0 0 250 250">
  <!-- Generator: Adobe Illustrator 29.7.1, SVG Export Plug-In . SVG Version: 2.1.1 Build 8)  -->
  <defs>
    <style>
      .st0 {
        fill: #fff;
      }
    </style>
  </defs>
  <rect width="250" height="250"/>
  <path class="st0" d="M224.69,25.31h-24.92l-17.86,17.86c-16.14-11.24-35.75-17.86-56.91-17.86-55.06,0-99.69,44.63-99.69,99.69s44.63,99.69,99.69,99.69,99.69-44.63,99.69-99.69c0-21.16-6.61-40.77-17.86-56.91l17.86-17.86v-24.92ZM125,204.75c-44.04,0-79.75-35.7-79.75-79.75S80.96,45.25,125,45.25c15.64,0,30.22,4.52,42.53,12.3l-8.51,13.49c-9.85-6.22-21.51-9.84-34.02-9.84-35.24,0-63.8,28.56-63.8,63.8s28.56,63.8,63.8,63.8,63.8-28.56,63.8-63.8c0-12.51-3.62-24.18-9.84-34.03l13.49-8.51c7.78,12.31,12.3,26.89,12.3,42.53,0,44.04-35.7,79.75-79.75,79.75ZM142.41,97.39c4.11,2.6,7.6,6.08,10.2,10.2l-27.61,17.41,17.41-27.61ZM142.41,97.39c-5.04-3.19-11-5.06-17.41-5.06-18.04,0-32.67,14.62-32.67,32.67s14.62,32.67,32.67,32.67,32.67-14.62,32.67-32.67c0-6.41-1.87-12.36-5.06-17.41l6.93-4.37c3.98,6.3,6.3,13.77,6.3,21.78,0,22.55-18.28,40.83-40.83,40.83s-40.83-18.28-40.83-40.83,18.28-40.83,40.83-40.83c8.01,0,15.47,2.31,21.78,6.3l-4.37,6.93Z"/>
</svg>